<svg version="1" xmlns="http://www.w3.org/2000/svg" width="370.667" height="370.667" viewBox="0 0 278.000000 278.000000"><path d="M231 34.1c-44.9 2.7-57.6 4.4-66.4 8.8-5.6 2.8-7.6 3.2-23.6 4.6-9.6.8-29 2.6-43 3.9-14 1.4-33.4 3-43 3.6-24.6 1.4-25.1 1.5-29.8 5.6-5.7 4.8-7.5 10.5-12.2 37.7C4.9 145.9 2.7 164.4.9 199.2c-2 37.5-.5 43.6 11 45.8 19.7 3.7 98.8-3.4 134.6-12.1 6.6-1.6 17.4-3.6 24-4.4 44.3-5.5 55.8-7.8 74.6-15.1 5.9-2.3 11.8-3.7 17.5-4.3 9.6-1 12.5-2.7 14.5-8.9 1.7-5.3.5-25.2-3.1-49.1-1.6-11.2-3-24.4-3-29.5 0-11.1-1.6-40-3.5-64-1.6-20.6-2.1-21.7-10.7-23.5-5.3-1.2-5.9-1.2-25.8 0zm27.4 33.1c.9 12.8 1.9 32.3 2.2 43.3.4 14.5 1.4 25.7 3.5 40.5 3.8 25.9 4.9 45 2.6 46.8-.8.7-5.1 1.7-9.4 2.2-4.3.4-10.6 2-14 3.4-9.3 3.9-18.7 6.2-40.8 10.1-27.5 4.8-28.1 4.8-18.5 1.6 16.3-5.3 20.1-8.5 22.3-18.6.9-4.7.8-7.6-1.2-19.8-1.2-7.8-2.9-19.2-3.7-25.2-1.4-9.9-1.8-11.3-4.5-13.8-3.4-3.1-6.4-3.4-14.8-1.2-3.1.7-16.2 3.7-29.1 6.5-16.8 3.6-24 5.6-25.5 7-1.7 1.6-2.3 4.1-3.3 12.8-.7 5.9-1.2 14.1-1.2 18.2.1 10.6 4.5 38.9 6.4 40.8 1 1 3.5 1.5 7.8 1.5h6.3l-7.3 1.8c-28.3 6.8-116.8 13.8-124.3 9.9-1.7-1-1.9-2.2-1.9-12.8 0-37 5.3-84.4 15.1-133.9 3.4-17.6 4.2-19.8 7.8-21.2 1.4-.5 10.7-1.5 20.6-2.1 9.9-.6 34.2-2.6 54-4.5 19.8-1.9 43.3-3.9 52.2-4.5 8.9-.6 16.9-1.3 17.8-1.6.9-.4 1.9-1.9 2.2-3.5.3-1.6 1.1-2.9 1.7-2.9.6 0 5-.5 9.6-1.1 11.6-1.4 32.4-2.6 50.6-2.8l15.1-.1 1.7 23.2zm-64.9 99.1c3.4 25 3.6 30.8 1.2 33.5-3.3 3.6-29.8 11-48.3 13.5l-10.1 1.3-.1-3.5c-.1-2-.4-5.2-.7-7.1-1.5-10.1-2.3-26.6-1.5-35.8.4-5.7 1-10.6 1.3-10.9.3-.3 10-2.5 21.4-4.9 11.4-2.4 22.6-5 24.8-5.8 2.2-.8 5.1-1.5 6.5-1.5l2.5-.1 3 21.3z"/><path d="M215.4 63.6c-6.1.7-12.8 2.1-15 3-2.1 1-5.3 1.6-7.1 1.5-2.2-.2-3.4.3-4.1 1.6-.8 1.6-2.6 31.4-2.7 44.5 0 5.3 2.5 9.5 6.9 11.6 3.3 1.6 10.3.6 26.5-3.8 10.8-2.9 14.7-5 16.9-9.1 1.5-2.9.7-39.7-1-44.4-2.6-7-2.6-7-20.4-4.9zm12 22.1c.3 7.6.8 15.4 1.2 17.3.3 2.2 0 4.2-.8 5.3-1.6 2.1-29.5 9.4-30.9 8-.5-.5-.5-7.3.1-16.3.5-8.5 1-17.3 1-19.5 0-3.4.3-4 2.3-4.1 1.2-.1 3.3-.5 4.7-.9l2.5-.7-2.2 1.6c-2.5 1.9-3 5.5-1.1 7.4 1.6 1.6 10.6 1.5 13.8-.1 3-1.5 3.8-5.7 1.6-8-1.4-1.4-1.2-1.6 2.2-2.5 2-.5 4-1 4.3-1.1.4-.1.9 6.1 1.3 13.6zm-13.6-11c-1 .2-2.6.2-3.5 0-1-.3-.2-.5 1.7-.5s2.7.2 1.8.5z"/><path d="M209.5 89.9c-6.1 2.3-7 3-7.3 5.4-.5 4.3 1.5 6 6.3 5.3l4-.6-4 2.3c-4.2 2.4-5.6 5.7-3.5 8.3 1.9 2.2 6 1.6 12.5-1.9 5-2.7 6.1-3.7 6.3-6.2.3-1.9-.2-3.3-1.4-4.2-1.4-1-1.5-1.6-.6-2.5 1.9-1.9 1.5-6.6-.7-7.8-2.6-1.4-3.5-1.2-11.6 1.9zM80 91.1c-3 .5-11.5 2.1-18.9 3.5-13.3 2.5-13.5 2.5-15 .6-1.7-2.1-5.3-3.3-6.9-2.3-1.4.9-6.2 11.5-6.2 13.8 0 1.2-.9 7.4-2.1 14-2.5 14.6-3.1 41.1-1.1 46 2.4 5.6 4.8 5.9 26.5 2.9 10.5-1.4 23.7-3.1 29.2-3.6 14.9-1.6 21.8-3 23.8-4.7 2.2-2.1 2.2-6.9-.3-16.1-1.1-4-2.4-13.3-3-20.5-2.1-25.6-2.5-27.7-5.9-31-2.6-2.6-3.9-3.1-8.8-3.3-3.2-.2-8.3.2-11.3.7zm13.8 10.1c.8.8 1.2 4.6 1.2 10.2 0 14.9 2.9 33.8 6.4 41.7.6 1.4.1 1.7-3.1 1.7-5.6.1-39.4 4-49.3 5.7-4.7.8-8.9 1.5-9.5 1.5-2.6 0-1.1-29.3 2.3-45.5l1.7-8 8-1.8c10.8-2.6 33.2-6.5 37.6-6.6 1.9-.1 4 .4 4.7 1.1z"/><path d="M70.9 105.6C57 108 46 113.2 46 117.3c0 5.3 3.4 5.9 12.8 2.1 3.5-1.4 9.8-3.2 13.9-4 8.7-1.6 10.5-2.7 10.1-6.2-.5-4.3-3.3-5.1-11.9-3.6zM77.5 117.1c-8.8 1.7-26.9 7.5-27.8 9-1.3 2.1-.1 6.5 1.9 7.3.9.4 6.4-.7 12.3-2.4 5.8-1.6 13-3.4 15.9-4.1 6-1.2 8.3-4 6.3-7.6-1.3-2.6-3.5-3.1-8.6-2.2zM159 164c-22.2 8.6-26.9 12.2-22.5 17 2.4 2.6 3.6 2.5 9.8-.7 2.9-1.4 10.8-4.7 17.6-7.3 13.6-5 15.8-6.9 13.8-11-1.8-3.7-4.8-3.4-18.7 2zM179 179.9c-.8.5-10.2 3-20.8 5.6-16.7 4.1-19.5 5-20.4 7-1.5 3.3.5 6.5 4.1 6.5 4.5 0 38.8-8.6 41.6-10.4 3-2 3.3-5.6.7-7.9-2.1-1.9-3-2-5.2-.8z"/></svg>